<svg width="150" height="150" viewBox="0 0 150 150" fill="none" xmlns="http://www.w3.org/2000/svg">
<path d="M116.234 40.945L93.6367 63.5489C91.5971 65.5891 90.723 68.5036 91.2734 71.3318C91.4676 72.3573 91.5755 73.4259 91.5755 74.5054C91.5755 83.6376 84.1295 91.0967 74.9892 91.0967C73.8993 91.0967 72.8417 90.9887 71.8165 90.7944C68.9892 90.2439 66.0755 91.1182 64.0359 93.1584L35.169 122.034C31.6187 125.585 30.8957 131.091 33.3993 135.441C35.3849 138.873 39.054 141 43.0144 141H106.932C110.903 141 114.572 138.884 116.547 135.441L148.511 80.0646C150.496 76.6319 150.496 72.3897 148.511 68.957L133.673 43.2551C130.058 36.9187 121.403 35.7744 116.234 40.945ZM58.4244 74.4946C58.4244 65.3624 65.8705 57.9033 75.0108 57.9033C76.1007 57.9033 77.1583 58.0113 78.1834 58.2056C81.0108 58.7561 83.9245 57.8817 85.964 55.8416L114.831 26.9661C118.381 23.4147 119.104 17.9094 116.601 13.5592C114.615 10.1265 110.946 8 106.986 8H43.0683C39.0971 8 35.428 10.1157 33.4532 13.5592L1.48921 68.9354C-0.496403 72.3681 -0.496403 76.6103 1.48921 80.043L16.3273 105.745C19.9748 112.071 28.6403 113.215 33.7985 108.044L56.3957 85.4403C58.4352 83.4001 59.3093 80.4856 58.759 77.6574C58.5216 76.6427 58.4244 75.5849 58.4244 74.4946Z" fill="#1D2939"/>
</svg>
