<svg width="70" height="69" viewBox="0 0 70 69" fill="none" xmlns="http://www.w3.org/2000/svg">
<g opacity="0.2">
<path d="M23.5103 62.4602H46.4436C57.9676 62.4602 60.0316 57.8893 60.6336 52.3247L62.7836 29.6118C63.5576 22.6844 61.551 17.0346 49.3103 17.0346H20.6436C8.40296 17.0346 6.39629 22.6844 7.17029 29.6118L9.32029 52.3247C9.92229 57.8893 11.9863 62.4602 23.5103 62.4602Z" stroke="#AB9AFF" stroke-width="3.30769" stroke-miterlimit="10" stroke-linecap="round" stroke-linejoin="round"/>
<path d="M23.5103 17.0346V14.7634C23.5103 9.73814 23.5103 5.67822 32.6836 5.67822H37.2703C46.4436 5.67822 46.4436 9.73814 46.4436 14.7634V17.0346" stroke="#AB9AFF" stroke-width="3.30769" stroke-miterlimit="10" stroke-linecap="round" stroke-linejoin="round"/>
<path d="M40.7101 36.9083V39.7474C40.7101 39.7758 40.7101 39.7758 40.7101 39.8042C40.7101 42.8988 40.6814 45.4256 34.9767 45.4256C29.3007 45.4256 29.2434 42.9272 29.2434 39.8326V36.9083C29.2434 34.0692 29.2434 34.0692 32.1101 34.0692H37.8434C40.7101 34.0692 40.7101 34.0692 40.7101 36.9083Z" stroke="#AB9AFF" stroke-width="3.30769" stroke-miterlimit="10" stroke-linecap="round" stroke-linejoin="round"/>
<path d="M62.6402 31.2302C56.0182 35.9999 48.4502 38.839 40.7102 39.8043" stroke="#AB9AFF" stroke-width="0.992308" stroke-miterlimit="10" stroke-linecap="round" stroke-linejoin="round"/>
<path d="M8.08765 31.9967C14.5376 36.3689 21.819 39.0093 29.2436 39.8326" stroke="#AB9AFF" stroke-width="0.992308" stroke-miterlimit="10" stroke-linecap="round" stroke-linejoin="round"/>
</g>
</svg>
