<svg width="20" height="20" viewBox="0 0 20 20" fill="none" xmlns="http://www.w3.org/2000/svg">
<path d="M8.67214 4.63338L3.33325 10L8.67214 15.3667C8.72036 15.43 8.78162 15.4823 8.85177 15.5198C8.92192 15.5574 8.99933 15.5795 9.07876 15.5846C9.15818 15.5896 9.23777 15.5776 9.31213 15.5492C9.38649 15.5208 9.45389 15.4768 9.50977 15.4202C9.56564 15.3635 9.60868 15.2955 9.63598 15.2207C9.66328 15.1459 9.6742 15.0662 9.668 14.9868C9.6618 14.9075 9.63862 14.8304 9.60004 14.7608C9.56145 14.6912 9.50836 14.6307 9.44436 14.5834L5.44992 10.5556L16.0777 10.5556C16.225 10.5556 16.3663 10.4971 16.4705 10.3929C16.5747 10.2887 16.6333 10.1474 16.6333 10C16.6333 9.85271 16.5747 9.7114 16.4705 9.60721C16.3663 9.50302 16.225 9.44449 16.0777 9.44449L5.44992 9.44449L9.44436 5.41672C9.54824 5.3121 9.6063 5.17051 9.60578 5.02308C9.60526 4.87566 9.5462 4.73448 9.44159 4.6306C9.33697 4.52673 9.19538 4.46866 9.04795 4.46918C8.90053 4.4697 8.75935 4.52877 8.65547 4.63338L8.67214 4.63338Z" fill="#111111"/>
</svg>
