<svg width="30" height="30" viewBox="0 0 30 30" fill="none" xmlns="http://www.w3.org/2000/svg">
<path d="M6.82506 23.1125V19.4625C6.82506 18.25 7.77506 17.1625 9.12506 17.1625C10.3376 17.1625 11.4251 18.1125 11.4251 19.4625V22.975C11.4251 25.4125 9.40006 27.4375 6.96256 27.4375C4.52506 27.4375 2.50006 25.4 2.50006 22.975V15.275C2.36256 8.25 7.91256 2.5625 14.9376 2.5625C21.9626 2.5625 27.5001 8.25 27.5001 15.1375V22.8375C27.5001 25.275 25.4751 27.3 23.0376 27.3C20.6001 27.3 18.5751 25.275 18.5751 22.8375V19.325C18.5751 18.1125 19.5251 17.025 20.8751 17.025C22.0876 17.025 23.1751 17.975 23.1751 19.325V23.1125" stroke="#AB9AFF" stroke-width="1.5" stroke-linecap="round" stroke-linejoin="round"/>
</svg>
