<svg width="30" height="30" viewBox="0 0 30 30" fill="none" xmlns="http://www.w3.org/2000/svg">
<path d="M4.37505 25.625C5.41255 26.6625 7.08755 26.6625 8.12505 25.625L24.375 9.37499C25.4125 8.33749 25.4125 6.66249 24.375 5.62499C23.3375 4.58749 21.6625 4.58749 20.625 5.62499L4.37505 21.875C3.33755 22.9125 3.33755 24.5875 4.37505 25.625Z" stroke="#AB9AFF" stroke-width="1.5" stroke-linecap="round" stroke-linejoin="round"/>
<path d="M22.5125 11.2375L18.7625 7.48749" stroke="#AB9AFF" stroke-width="1.5" stroke-linecap="round" stroke-linejoin="round"/>
<path d="M10.625 3.05L12.5 2.5L11.95 4.375L12.5 6.25L10.625 5.7L8.75 6.25L9.3 4.375L8.75 2.5L10.625 3.05Z" stroke="#AB9AFF" stroke-linecap="round" stroke-linejoin="round"/>
<path d="M5.625 10.55L7.5 10L6.95 11.875L7.5 13.75L5.625 13.2L3.75 13.75L4.3 11.875L3.75 10L5.625 10.55Z" stroke="#AB9AFF" stroke-linecap="round" stroke-linejoin="round"/>
<path d="M24.375 16.8L26.25 16.25L25.7 18.125L26.25 20L24.375 19.45L22.5 20L23.05 18.125L22.5 16.25L24.375 16.8Z" stroke="#AB9AFF" stroke-linecap="round" stroke-linejoin="round"/>
</svg>
