<svg width="70" height="69" viewBox="0 0 70 69" fill="none" xmlns="http://www.w3.org/2000/svg">
<g opacity="0.2">
<path d="M26.8264 30.8664C26.5397 30.838 26.1956 30.838 25.8803 30.8664C19.0564 30.6392 13.6375 25.102 13.6375 18.287C13.6375 11.3299 19.3144 5.67914 26.3677 5.67914C33.3922 5.67914 39.0979 11.3299 39.0979 18.287C39.0692 25.102 33.6503 30.6392 26.8264 30.8664Z" stroke="#AB9AFF" stroke-width="3.30827" stroke-linecap="round" stroke-linejoin="round"/>
<path d="M47.6135 11.3585C53.1758 11.3585 57.6485 15.8166 57.6485 21.2971C57.6485 26.6639 53.3478 31.0369 47.9862 31.2357C47.7568 31.2073 47.4988 31.2073 47.2407 31.2357" stroke="#AB9AFF" stroke-width="3.30827" stroke-linecap="round" stroke-linejoin="round"/>
<path d="M12.4905 41.3446C5.55198 45.9448 5.55198 53.4413 12.4905 58.0131C20.3752 63.2379 33.3062 63.2379 41.1909 58.0131C48.1294 53.4129 48.1294 45.9164 41.1909 41.3446C33.3348 36.1481 20.4039 36.1481 12.4905 41.3446Z" stroke="#AB9AFF" stroke-width="3.30827" stroke-linecap="round" stroke-linejoin="round"/>
<path d="M53.1472 56.792C55.2116 56.3661 57.1612 55.5426 58.7669 54.3215C63.2396 50.9992 63.2396 45.5188 58.7669 42.1964C57.1899 41.0038 55.2689 40.2087 53.2332 39.7544" stroke="#292D32" stroke-width="0.992481" stroke-linecap="round" stroke-linejoin="round"/>
</g>
</svg>
